<svg width="38" height="36" viewBox="0 0 38 36" fill="none" xmlns="http://www.w3.org/2000/svg">
<path d="M23.8235 6.81577C23.7754 6.49309 23.7507 6.16781 23.7496 5.84209C23.7507 5.51637 23.7754 5.19109 23.8235 4.86841H12.1279L12.814 6.81577H23.8235Z" fill="white"/>
<path d="M31.6664 10.7105C34.5813 10.7105 36.9442 8.53079 36.9442 5.84204C36.9442 3.15329 34.5813 0.973633 31.6664 0.973633C28.7516 0.973633 26.3887 3.15329 26.3887 5.84204C26.3887 8.53079 28.7516 10.7105 31.6664 10.7105Z" fill="white"/>
<path d="M14.0703 31.1578C15.382 31.1578 16.4453 30.177 16.4453 28.967C16.4453 27.7571 15.382 26.7762 14.0703 26.7762C12.7586 26.7762 11.6953 27.7571 11.6953 28.967C11.6953 30.177 12.7586 31.1578 14.0703 31.1578Z" fill="white"/>
<path d="M28.5 31.1578C29.8117 31.1578 30.875 30.177 30.875 28.967C30.875 27.7571 29.8117 26.7762 28.5 26.7762C27.1883 26.7762 26.125 27.7571 26.125 28.967C26.125 30.177 27.1883 31.1578 28.5 31.1578Z" fill="white"/>
<path d="M31.6665 13.1446H31.2232L29.9037 18.4999H14.0704L9.24652 4.41068C9.19434 4.26118 9.10373 4.12554 8.98242 4.01534C8.86111 3.90513 8.7127 3.82363 8.54985 3.77779L4.22207 2.55095C4.089 2.51323 3.94918 2.50006 3.81059 2.51218C3.67199 2.52431 3.53735 2.56149 3.41434 2.62162C3.1659 2.74305 2.97994 2.95054 2.89735 3.19845C2.81477 3.44636 2.84233 3.71437 2.97397 3.94354C3.10561 4.1727 3.33054 4.34424 3.5993 4.42042L7.38874 5.49147L12.2337 19.6099L10.5026 20.9146L10.3654 21.0412C9.93721 21.4964 9.6945 22.075 9.67908 22.6775C9.66367 23.28 9.87652 23.8686 10.281 24.3419C10.5687 24.6647 10.9343 24.9208 11.3485 25.0899C11.7627 25.259 12.2141 25.3363 12.6665 25.3156H30.2837C30.5637 25.3156 30.8322 25.213 31.0301 25.0304C31.2281 24.8478 31.3393 24.6002 31.3393 24.3419C31.3393 24.0837 31.2281 23.8361 31.0301 23.6535C30.8322 23.4708 30.5637 23.3683 30.2837 23.3683H12.4976C12.3761 23.3644 12.2577 23.3318 12.1538 23.2734C12.0499 23.215 11.9641 23.1329 11.9047 23.035C11.8453 22.9371 11.8142 22.8268 11.8146 22.7146C11.8149 22.6024 11.8465 22.4922 11.9065 22.3946L14.4504 20.4472H30.7482C30.9922 20.4527 31.2307 20.3801 31.4232 20.2416C31.6156 20.1031 31.7501 19.9074 31.8037 19.6877L33.461 12.9596C32.8724 13.0841 32.2704 13.1462 31.6665 13.1446Z" fill="white"/>
</svg>
