<svg width="96" height="96" viewBox="0 0 96 96" fill="none" xmlns="http://www.w3.org/2000/svg">
<circle cx="48" cy="48" r="48" fill="#FFE4CC"/>
<circle cx="48" cy="48" r="37" fill="#FF7800"/>
<path d="M48.0002 33.8333C40.1887 33.8333 33.8335 40.1884 33.8335 47.9999V53.8692C33.8335 55.3198 35.1042 56.4999 36.6668 56.4999H38.0835C38.4592 56.4999 38.8196 56.3507 39.0852 56.085C39.3509 55.8193 39.5002 55.459 39.5002 55.0833V47.7973C39.5002 47.4216 39.3509 47.0613 39.0852 46.7956C38.8196 46.5299 38.4592 46.3807 38.0835 46.3807H36.7972C37.5848 40.8982 42.3023 36.6666 48.0002 36.6666C53.698 36.6666 58.4155 40.8982 59.2032 46.3807H57.9168C57.5411 46.3807 57.1808 46.5299 56.9151 46.7956C56.6494 47.0613 56.5002 47.4216 56.5002 47.7973V56.4999C56.5002 58.0625 55.2294 59.3333 53.6668 59.3333H50.8335V57.9166H45.1668V62.1666H53.6668C56.792 62.1666 59.3335 59.6251 59.3335 56.4999C60.8961 56.4999 62.1668 55.3198 62.1668 53.8692V47.9999C62.1668 40.1884 55.8117 33.8333 48.0002 33.8333Z" fill="white"/>
</svg>
