<svg width="96" height="96" viewBox="0 0 96 96" fill="none" xmlns="http://www.w3.org/2000/svg">
<circle cx="48" cy="48" r="48" fill="#FFE4CC"/>
<circle cx="48" cy="48" r="37" fill="#FF7800"/>
<g clip-path="url(#clip0_32_7)">
<path d="M63.4901 56.28C63.4198 56.0306 63.2554 55.8182 63.0315 55.6876C62.8077 55.557 62.5419 55.5185 62.2901 55.58L59.8001 56.25C61.1627 54.2415 61.9889 51.9179 62.2001 49.5C62.4044 47.2379 62.0736 44.9595 61.2346 42.8488C60.3955 40.7382 59.0717 38.8545 57.3701 37.35C57.1734 37.1873 56.922 37.106 56.6672 37.1228C56.4125 37.1395 56.1739 37.253 56.0001 37.44C55.8253 37.639 55.7366 37.8993 55.7535 38.1636C55.7704 38.428 55.8914 38.6748 56.0901 38.85C57.5564 40.1443 58.6971 41.7657 59.4198 43.583C60.1426 45.4003 60.427 47.3623 60.2501 49.31C60.0788 51.3615 59.3908 53.3363 58.2501 55.05L58.0001 52.54C58.019 52.3923 58.0046 52.2422 57.958 52.1008C57.9115 51.9593 57.8339 51.8301 57.731 51.7224C57.6281 51.6148 57.5025 51.5315 57.3633 51.4786C57.2241 51.4257 57.0748 51.4046 56.9264 51.4168C56.778 51.4289 56.6342 51.4741 56.5054 51.549C56.3767 51.6238 56.2663 51.7265 56.1823 51.8495C56.0984 51.9725 56.0429 52.1127 56.02 52.2598C55.9972 52.4069 56.0074 52.5574 56.0501 52.7L56.5501 59.14L62.8001 57.48C63.0477 57.4076 63.2577 57.2423 63.3863 57.0187C63.5149 56.7951 63.5521 56.5304 63.4901 56.28Z" fill="white"/>
<path d="M34.31 47.0801C34.4429 47.1656 34.5933 47.2202 34.75 47.2401C35.011 47.2744 35.275 47.2043 35.4846 47.0452C35.6943 46.8861 35.8328 46.6507 35.87 46.3901C36.2832 43.3393 37.8337 40.5571 40.2109 38.6008C42.5882 36.6445 45.6167 35.6585 48.69 35.8401L46.45 37.3701C46.2915 37.4895 46.1721 37.6534 46.1071 37.8408C46.042 38.0283 46.0341 38.2309 46.0845 38.4228C46.1349 38.6147 46.2413 38.7873 46.3901 38.9186C46.5388 39.0499 46.7233 39.134 46.92 39.1601C47.1453 39.1807 47.3709 39.1243 47.56 39.0001L52.89 35.3401L48.33 30.7601C48.2489 30.6358 48.1411 30.5311 48.0144 30.4536C47.8878 30.3761 47.7454 30.3278 47.5978 30.3122C47.4501 30.2966 47.3009 30.314 47.1608 30.3633C47.0207 30.4125 46.8934 30.4924 46.788 30.597C46.6827 30.7016 46.6019 30.8283 46.5516 30.9681C46.5014 31.1078 46.4828 31.2569 46.4974 31.4047C46.512 31.5524 46.5592 31.6951 46.6358 31.8223C46.7123 31.9495 46.8163 32.0581 46.94 32.1401L48.64 33.8401C45.0909 33.6704 41.607 34.8375 38.8763 37.1109C36.1456 39.3844 34.3664 42.599 33.89 46.1201C33.8644 46.3033 33.8901 46.4901 33.9642 46.6595C34.0384 46.829 34.1581 46.9746 34.31 47.0801Z" fill="white"/>
<path d="M51.7302 59.93C50.1686 60.4288 48.5214 60.6024 46.8902 60.44C44.9035 60.2453 42.9941 59.57 41.3268 58.4723C39.6595 57.3747 38.2844 55.8878 37.3202 54.14L39.8102 55.07C40.0397 55.1098 40.2759 55.0682 40.4781 54.9525C40.6802 54.8367 40.8356 54.654 40.9174 54.4358C40.9992 54.2177 41.0023 53.9779 40.9261 53.7577C40.8499 53.5376 40.6993 53.3509 40.5002 53.23L35.9102 51.53L34.4402 51L33.3302 57.35C33.2917 57.6037 33.3522 57.8626 33.4993 58.0729C33.6463 58.2833 33.8686 58.429 34.1202 58.48H34.2902C34.5255 58.4843 34.7548 58.4054 34.9378 58.2572C35.1207 58.1091 35.2455 57.9011 35.2902 57.67L35.7102 55.27C36.8412 57.2513 38.4298 58.9332 40.3434 60.1753C42.257 61.4174 44.44 62.1836 46.7102 62.41C48.6081 62.5981 50.5245 62.3939 52.3402 61.81C52.5713 61.7143 52.7582 61.5353 52.864 61.3085C52.9697 61.0817 52.9865 60.8236 52.9112 60.5849C52.8358 60.3463 52.6737 60.1446 52.4569 60.0197C52.2402 59.8947 51.9844 59.8556 51.7402 59.91L51.7302 59.93Z" fill="white"/>
<path d="M52 43H44C43.7348 43 43.4804 43.1054 43.2929 43.2929C43.1054 43.4804 43 43.7348 43 44V52C43 52.2652 43.1054 52.5196 43.2929 52.7071C43.4804 52.8946 43.7348 53 44 53H52C52.2652 53 52.5196 52.8946 52.7071 52.7071C52.8946 52.5196 53 52.2652 53 52V44C53 43.7348 52.8946 43.4804 52.7071 43.2929C52.5196 43.1054 52.2652 43 52 43ZM51 51H45V45H51V51Z" fill="white"/>
</g>
<defs>
<clipPath id="clip0_32_7">
<rect width="36" height="36" fill="white" transform="translate(30 30)"/>
</clipPath>
</defs>
</svg>
