<svg width="96" height="96" viewBox="0 0 96 96" fill="none" xmlns="http://www.w3.org/2000/svg">
<circle cx="48" cy="48" r="48" fill="#FFE4CC"/>
<circle cx="48" cy="48" r="37" fill="#FF7800"/>
<path d="M52.6875 51.75C52.4389 51.75 52.2004 51.8488 52.0246 52.0246C51.8488 52.2004 51.75 52.4389 51.75 52.6875C51.75 52.9361 51.8488 53.1746 52.0246 53.3504C52.2004 53.5262 52.4389 53.625 52.6875 53.625H56.4375C56.6861 53.625 56.9246 53.5262 57.1004 53.3504C57.2762 53.1746 57.375 52.9361 57.375 52.6875C57.375 52.4389 57.2762 52.2004 57.1004 52.0246C56.9246 51.8488 56.6861 51.75 56.4375 51.75H52.6875Z" fill="white"/>
<path d="M34.875 42.375C34.875 41.3804 35.2701 40.4266 35.9733 39.7233C36.6766 39.0201 37.6304 38.625 38.625 38.625H57.375C58.3696 38.625 59.3234 39.0201 60.0266 39.7233C60.7299 40.4266 61.125 41.3804 61.125 42.375V53.625C61.125 54.6196 60.7299 55.5734 60.0266 56.2766C59.3234 56.9799 58.3696 57.375 57.375 57.375H38.625C37.6304 57.375 36.6766 56.9799 35.9733 56.2766C35.2701 55.5734 34.875 54.6196 34.875 53.625V42.375ZM59.25 42.375C59.25 41.8777 59.0525 41.4008 58.7008 41.0492C58.3492 40.6975 57.8723 40.5 57.375 40.5H38.625C38.1277 40.5 37.6508 40.6975 37.2992 41.0492C36.9475 41.4008 36.75 41.8777 36.75 42.375V44.25H59.25V42.375Z" fill="white"/>
<path d="M36.75 53.625C36.75 54.1223 36.9475 54.5992 37.2992 54.9508C37.6508 55.3025 38.1277 55.5 38.625 55.5H57.375C57.8723 55.5 58.3492 55.3025 58.7008 54.9508C59.0525 54.5992 59.25 54.1223 59.25 53.625V46.125H36.75V53.625Z" fill="white"/>
</svg>
