<svg width="196" height="59" viewBox="0 0 196 59" fill="none" xmlns="http://www.w3.org/2000/svg">
<path d="M194.7 51.4779C194.7 54.5665 192.21 57.0682 189.131 57.0682H6.86952C3.79138 57.0682 1.29297 54.5665 1.29297 51.4779V6.89649C1.29297 3.80938 3.7915 1.29883 6.86952 1.29883H189.129C192.21 1.29883 194.698 3.80938 194.698 6.89649L194.7 51.4779Z" fill="white"/>
<path d="M189.131 58.369H6.86952C3.0825 58.369 0 55.279 0 51.4781V6.89819C0 3.09441 3.0825 0 6.86952 0H189.129C192.912 0 195.998 3.09441 195.998 6.89819V51.4781C196.001 55.279 192.915 58.369 189.131 58.369Z" fill="#A6A6A6"/>
<path d="M194.7 51.4779C194.7 54.5665 192.21 57.0682 189.131 57.0682H6.86952C3.79138 57.0682 1.29297 54.5665 1.29297 51.4779V6.89649C1.29297 3.80938 3.7915 1.29883 6.86952 1.29883H189.129C192.21 1.29883 194.698 3.80938 194.698 6.89649L194.7 51.4779Z" fill="black"/>
<path d="M43.7649 28.8775C43.7228 24.1731 47.5984 21.8844 47.7756 21.7778C45.5807 18.5623 42.1787 18.1229 40.9832 18.0879C38.1259 17.7858 35.3543 19.8059 33.8987 19.8059C32.4141 19.8059 30.1727 18.1171 27.757 18.1667C24.6483 18.2149 21.7403 20.0234 20.1451 22.8317C16.8536 28.5578 19.3084 36.9725 22.4622 41.601C24.0397 43.8693 25.8832 46.3988 28.2959 46.3098C30.6564 46.2134 31.5382 44.7991 34.3868 44.7991C37.2092 44.7991 38.0373 46.3098 40.4979 46.2528C43.0314 46.2134 44.6263 43.9758 46.1488 41.6886C47.9719 39.0919 48.7039 36.5317 48.733 36.4004C48.6748 36.3799 43.8143 34.5145 43.7649 28.8775ZM39.1165 15.0431C40.3859 13.4477 41.2547 11.2773 41.0136 9.07471C39.1759 9.15645 36.878 10.3519 35.5545 11.9122C34.3837 13.2872 33.3378 15.5409 33.6079 17.6602C35.6723 17.8149 37.7917 16.6137 39.1165 15.0431Z" fill="white"/>
<path d="M189.13 0H91.5059L129.744 58.369H189.13C192.913 58.369 196 55.279 196 51.4737V6.89819C196.001 3.09441 192.914 0 189.13 0Z" fill="url(#paint0_linear_61_41)"/>
<path d="M77.9561 45.984H74.6572L72.8501 40.2783H66.5688L64.8474 45.984H61.6357L67.8603 26.5593H71.704L77.9561 45.984ZM72.3055 37.8845L70.6713 32.8123C70.4984 32.2941 70.173 31.0739 69.6964 29.153H69.6384C69.4467 29.9792 69.1402 31.1994 68.7204 32.8123L67.1138 37.8845H72.3055ZM93.9323 38.8085C93.9323 41.1906 93.2888 43.0735 92.0002 44.4559C90.8469 45.6862 89.4132 46.3008 87.7033 46.3008C85.857 46.3008 84.5293 45.6395 83.7231 44.3143V51.6635H80.6261V36.5811C80.6261 35.0848 80.587 33.5509 80.5114 31.9774H83.2351L83.408 34.1975H83.466C84.4988 32.5248 86.0662 31.6883 88.1696 31.6883C89.814 31.6883 91.1867 32.3407 92.2849 33.6471C93.3817 34.9565 93.9323 36.6759 93.9323 38.8085ZM90.7771 38.9223C90.7771 37.559 90.472 36.4351 89.859 35.5491C89.1894 34.6281 88.2902 34.167 87.1629 34.167C86.3988 34.167 85.7045 34.4237 85.0842 34.9302C84.4625 35.4411 84.0557 36.1081 83.8656 36.9343C83.7697 37.3196 83.7218 37.6335 83.7218 37.8817V40.2185C83.7218 41.2358 84.0326 42.0957 84.6543 42.7992C85.2761 43.4998 86.0837 43.8515 87.0773 43.8515C88.2439 43.8515 89.1518 43.3976 89.801 42.4969C90.4517 41.5934 90.7771 40.4024 90.7771 38.9223ZM109.965 38.8085C109.965 41.1906 109.321 43.0735 108.033 44.4559C106.878 45.6862 105.446 46.3008 103.735 46.3008C101.888 46.3008 100.561 45.6395 99.7544 44.3143V51.6635H96.6574V36.5811C96.6574 35.0848 96.6181 33.5509 96.5426 31.9774H99.2663L99.4392 34.1975H99.4973C100.529 32.5248 102.096 31.6883 104.201 31.6883C105.844 31.6883 107.216 32.3407 108.318 33.6471C109.413 34.9565 109.965 36.6759 109.965 38.8085ZM106.808 38.9223C106.808 37.559 106.502 36.4351 105.889 35.5491C105.219 34.6281 104.323 34.167 103.196 34.167C102.432 34.167 101.737 34.4237 101.114 34.9302C100.492 35.4411 100.087 36.1081 99.8967 36.9343C99.8023 37.3196 99.7515 37.6335 99.7515 37.8817V40.2185C99.7515 41.2358 100.064 42.0957 100.683 42.7992C101.304 43.4984 102.112 43.8515 103.109 43.8515C104.276 43.8515 105.184 43.3976 105.832 42.4969C106.483 41.5934 106.808 40.4024 106.808 38.9223ZM127.89 40.5352C127.89 42.189 127.315 43.5333 126.172 44.5711C124.914 45.7037 123.158 46.2715 120.906 46.2715C118.826 46.2715 117.158 45.8687 115.9 45.0615L116.617 42.4677C117.975 43.2764 119.467 43.6792 121.091 43.6792C122.259 43.6792 123.167 43.4136 123.814 42.8867C124.464 42.3583 124.792 41.6518 124.792 40.7702C124.792 39.9807 124.52 39.3193 123.987 38.7808C123.451 38.2437 122.565 37.7431 121.32 37.2833C117.936 36.0149 116.242 34.1597 116.242 31.7192C116.242 30.1253 116.84 28.8204 118.034 27.8001C119.229 26.7813 120.812 26.272 122.782 26.272C124.541 26.272 126.007 26.58 127.17 27.1945L126.393 29.7312C125.298 29.1356 124.061 28.8379 122.678 28.8379C121.586 28.8379 120.729 29.1079 120.116 29.645C119.6 30.1253 119.339 30.7107 119.339 31.4054C119.339 32.1718 119.637 32.8082 120.229 33.3074C120.744 33.767 121.682 34.2678 123.039 34.8049C124.703 35.4793 125.926 36.2646 126.71 37.1666C127.498 38.0684 127.89 39.1938 127.89 40.5352ZM138.156 34.3128H134.743V41.1132C134.743 42.8429 135.344 43.7055 136.55 43.7055C137.103 43.7055 137.562 43.6587 137.925 43.561L138.011 45.9241C137.401 46.1534 136.598 46.2686 135.603 46.2686C134.379 46.2686 133.424 45.8935 132.734 45.1432C132.046 44.393 131.701 43.1362 131.701 41.3672V34.307H129.667V31.9716H131.701V29.407L134.743 28.4845V31.9716H138.156V34.3128ZM153.528 38.8654C153.528 41.0182 152.915 42.7858 151.692 44.1682C150.412 45.5913 148.71 46.3007 146.587 46.3007C144.539 46.3007 142.911 45.6191 141.696 44.2572C140.482 42.8924 139.875 41.173 139.875 39.0989C139.875 36.9283 140.502 35.1506 141.753 33.7684C143.007 32.3846 144.695 31.6929 146.817 31.6929C148.862 31.6929 150.505 32.3759 151.749 33.7392C152.937 35.0616 153.528 36.7694 153.528 38.8654ZM150.318 38.9369C150.318 37.6538 150.042 36.5532 149.488 35.6322C148.839 34.52 147.909 33.964 146.705 33.964C145.465 33.964 144.513 34.52 143.865 35.6322C143.31 36.5532 143.034 37.6727 143.034 38.9952C143.034 40.2798 143.31 41.3831 143.865 42.3013C144.535 43.4136 145.469 43.9697 146.679 43.9697C147.863 43.9697 148.791 43.4019 149.462 42.2736C150.032 41.3307 150.318 40.2228 150.318 38.9369ZM163.599 34.7142C163.293 34.6572 162.965 34.628 162.623 34.628C161.534 34.628 160.691 35.0397 160.099 35.8686C159.584 36.5985 159.326 37.5209 159.326 38.6346V45.9839H156.229V36.3884C156.229 34.7755 156.198 33.3042 156.139 31.9789H158.836L158.95 34.6586H159.035C159.364 33.7377 159.878 32.9946 160.584 32.4385C161.274 31.938 162.019 31.6883 162.822 31.6883C163.108 31.6883 163.367 31.7087 163.597 31.7453L163.599 34.7142ZM177.45 38.318C177.45 38.8756 177.414 39.3455 177.337 39.7295H168.046C168.081 41.1132 168.531 42.1729 169.394 42.9027C170.177 43.5538 171.189 43.8807 172.433 43.8807C173.808 43.8807 175.063 43.6617 176.192 43.2194L176.677 45.3782C175.358 45.9562 173.801 46.2438 172.004 46.2438C169.843 46.2438 168.146 45.6044 166.911 44.3288C165.679 43.0516 165.062 41.3351 165.062 39.185C165.062 37.0743 165.636 35.3156 166.785 33.9129C167.988 32.4153 169.613 31.6664 171.659 31.6664C173.668 31.6664 175.188 32.4152 176.221 33.9129C177.039 35.0995 177.45 36.5708 177.45 38.318ZM174.497 37.5108C174.519 36.5869 174.315 35.7914 173.896 35.1185C173.359 34.2515 172.534 33.8195 171.429 33.8195C170.416 33.8195 169.591 34.2413 168.964 35.0879C168.448 35.7608 168.142 36.5694 168.047 37.5079L174.497 37.5108Z" fill="white"/>
<path d="M70.8121 19.6072H69.1894L68.3018 16.8032H65.215L64.3681 19.6072H62.7891L65.8483 10.0598H67.7367L70.8121 19.6072ZM68.0345 15.6268L67.2312 13.1337C67.147 12.8783 66.9915 12.2842 66.7519 11.3355H66.7228C66.624 11.7456 66.4831 12.3411 66.271 13.1337L65.4822 15.6268H68.0345ZM78.4616 12.7236L75.8672 19.6072H74.3868L71.8768 12.7236H73.5124L74.6833 16.3639C74.8808 16.9725 75.0493 17.5535 75.1757 18.1052H75.2178C75.3312 17.6104 75.4996 17.0295 75.7103 16.3639L76.8666 12.7236H78.4616ZM83.9845 19.6072L83.8712 18.8145H83.8289C83.3641 19.4523 82.6872 19.7632 81.8273 19.7632C80.6012 19.7632 79.7267 18.8991 79.7267 17.7373C79.7267 16.0383 81.1924 15.1596 83.7302 15.1596V15.0326C83.7302 14.1262 83.2508 13.6722 82.3066 13.6722C81.6295 13.6722 81.037 13.843 80.5169 14.1831L80.2074 13.1774C80.8422 12.7804 81.6311 12.5819 82.5621 12.5819C84.3518 12.5819 85.2553 13.5306 85.2553 15.4296V17.965C85.2553 18.6597 85.2844 19.1983 85.3541 19.6085L83.9845 19.6072ZM83.7724 16.1785C82.0802 16.1785 81.2346 16.5901 81.2346 17.5666C81.2346 18.2891 81.6719 18.6424 82.2776 18.6424C83.0532 18.6424 83.7724 18.0483 83.7724 17.2411V16.1785ZM88.646 11.5894C88.139 11.5894 87.7439 11.1924 87.7439 10.6684C87.7439 10.1444 88.1522 9.76199 88.6751 9.76199C89.1965 9.76199 89.6193 10.1444 89.6049 10.6684C89.6049 11.2216 89.2112 11.5894 88.646 11.5894ZM89.4362 19.6072H87.9139V12.7236H89.4362V19.6072ZM93.6634 19.6072H92.141V9.56494H93.6634V19.6072ZM100.133 19.6072L100.02 18.8145H99.978C99.5132 19.4523 98.8362 19.7632 97.9763 19.7632C96.7503 19.7632 95.8758 18.8991 95.8758 17.7373C95.8758 16.0383 97.3414 15.1596 99.8791 15.1596V15.0326C99.8791 14.1262 99.3997 13.6722 98.4555 13.6722C97.7786 13.6722 97.1859 13.843 96.6659 14.1831L96.3551 13.1759C96.9899 12.7789 97.7787 12.5804 98.7099 12.5804C100.5 12.5804 101.403 13.5292 101.403 15.4281V17.9635C101.403 18.6583 101.434 19.1969 101.5 19.607H100.133V19.6072ZM99.9214 16.1785C98.229 16.1785 97.3836 16.5901 97.3836 17.5666C97.3836 18.2891 97.8207 18.6424 98.4265 18.6424C99.2022 18.6424 99.9214 18.0483 99.9214 17.2411V16.1785ZM107.571 19.7633C106.599 19.7633 105.882 19.3517 105.417 18.5446H105.386L105.299 19.6072H104.002C104.044 19.0554 104.058 18.4307 104.058 17.752V9.56494H105.582V13.7307H105.611C106.063 12.9659 106.794 12.5834 107.796 12.5834C109.446 12.5834 110.603 14.0007 110.603 16.0676C110.603 18.2045 109.318 19.7633 107.571 19.7633ZM107.262 13.7847C106.386 13.7847 105.584 14.5496 105.584 15.6122V16.8164C105.584 17.7651 106.304 18.5446 107.236 18.5446C108.376 18.5446 109.054 17.6104 109.054 16.123C109.053 14.7349 108.347 13.7847 107.262 13.7847ZM114.375 19.6072H112.854V9.56494H114.375V19.6072ZM122.663 16.5332H118.093C118.123 17.8366 118.98 18.5723 120.25 18.5723C120.926 18.5723 121.547 18.4584 122.096 18.2468L122.333 19.3094C121.685 19.5926 120.924 19.7342 120.036 19.7342C117.892 19.7342 116.624 18.3738 116.624 16.2646C116.624 14.154 117.923 12.5674 119.865 12.5674C121.612 12.5674 122.713 13.8708 122.713 15.8399C122.719 16.1084 122.706 16.3493 122.663 16.5332ZM121.266 15.4429C121.266 14.3802 120.73 13.63 119.757 13.63C118.883 13.63 118.194 14.3948 118.092 15.4429H121.266ZM131.89 19.7633C129.888 19.7633 128.591 18.2614 128.591 16.2223C128.591 14.0971 129.915 12.582 132.004 12.582C133.975 12.582 135.303 14.0124 135.303 16.1099C135.303 18.2614 133.935 19.7633 131.89 19.7633ZM131.948 13.7001C130.848 13.7001 130.144 14.7335 130.144 16.1785C130.144 17.5958 130.863 18.6292 131.933 18.6292C133.004 18.6292 133.721 17.5243 133.721 16.1493C133.723 14.7481 133.018 13.7001 131.948 13.7001ZM143.487 19.6072H141.967V15.6545C141.967 14.4372 141.502 13.827 140.585 13.827C139.683 13.827 139.061 14.6065 139.061 15.5129V19.6072H137.54V14.6911C137.54 14.0825 137.524 13.43 137.484 12.7221H138.823L138.894 13.7847H138.936C139.343 13.0491 140.177 12.5805 141.107 12.5805C142.543 12.5805 143.488 13.6855 143.488 15.4837V19.6072H143.487ZM153.448 13.8708H151.773V17.2134C151.773 18.0643 152.068 18.4891 152.659 18.4891C152.928 18.4891 153.155 18.4599 153.336 18.4176L153.379 19.5794C153.082 19.6934 152.685 19.7502 152.196 19.7502C150.996 19.7502 150.28 19.0846 150.28 17.3418V13.8708H149.281V12.7236H150.28V11.4625L151.773 11.0085V12.7221H153.448V13.8708ZM161.51 19.6072H159.986V15.6837C159.986 14.4518 159.522 13.8285 158.605 13.8285C157.816 13.8285 157.084 14.3671 157.084 15.4575V19.6072H155.56V9.56494H157.084V13.7001H157.113C157.593 12.9498 158.284 12.5805 159.172 12.5805C160.623 12.5805 161.51 13.7132 161.51 15.5129V19.6072ZM169.289 16.5332H164.721C164.75 17.8366 165.607 18.5723 166.877 18.5723C167.555 18.5723 168.174 18.4584 168.723 18.2468L168.961 19.3094C168.313 19.5926 167.551 19.7342 166.663 19.7342C164.519 19.7342 163.251 18.3738 163.251 16.2646C163.251 14.154 164.55 12.5674 166.492 12.5674C168.239 12.5674 169.34 13.8708 169.34 15.8399C169.346 16.1084 169.331 16.3493 169.289 16.5332ZM167.893 15.4429C167.893 14.3802 167.359 13.63 166.385 13.63C165.509 13.63 164.821 14.3948 164.721 15.4429H167.893Z" fill="white"/>
<defs>
<linearGradient id="paint0_linear_61_41" x1="143.754" y1="58.5276" x2="143.754" y2="5.91392" gradientUnits="userSpaceOnUse">
<stop stop-color="#1A1A1A" stop-opacity="0.1"/>
<stop offset="0.123" stop-color="#212121" stop-opacity="0.151"/>
<stop offset="0.308" stop-color="#353535" stop-opacity="0.227"/>
<stop offset="0.532" stop-color="#575757" stop-opacity="0.318"/>
<stop offset="0.783" stop-color="#858585" stop-opacity="0.421"/>
<stop offset="1" stop-color="#B3B3B3" stop-opacity="0.51"/>
</linearGradient>
</defs>
</svg>
