<svg width="96" height="96" viewBox="0 0 96 96" fill="none" xmlns="http://www.w3.org/2000/svg">
<circle cx="48" cy="48" r="48" fill="#FFE4CC"/>
<circle cx="48" cy="48" r="37" fill="#FF7800"/>
<path d="M48 33.6001C46.6068 33.5999 45.2529 34.0614 44.1498 34.9124C43.0467 35.7634 42.2568 36.9559 41.9034 38.3035C40.3772 38.7034 39.0566 39.6612 38.2024 40.9876C37.3482 42.314 37.0226 43.9126 37.29 45.4675C36.168 46.2198 35.3176 47.3128 34.8641 48.5852C34.4107 49.8577 34.3782 51.2422 34.7715 52.5345C35.1648 53.8268 35.9631 54.9584 37.0485 55.7625C38.134 56.5665 39.4492 57.0004 40.8 57.0001H44.4V60.1501C44.4 61.3921 45.408 62.4001 46.65 62.4001H49.35C50.592 62.4001 51.6 61.3921 51.6 60.1501V57.0001H55.2C56.5508 57.0004 57.866 56.5665 58.9514 55.7625C60.0369 54.9584 60.8352 53.8268 61.2285 52.5345C61.6218 51.2422 61.5893 49.8577 61.1359 48.5852C60.6824 47.3128 59.8319 46.2198 58.71 45.4675C58.9774 43.9126 58.6518 42.314 57.7976 40.9876C56.9434 39.6612 55.6228 38.7034 54.0966 38.3035C53.7432 36.9559 52.9533 35.7634 51.8502 34.9124C50.7471 34.0614 49.3932 33.5999 48 33.6001ZM49.8 57.0001V60.1501C49.8 60.2694 49.7526 60.3839 49.6682 60.4683C49.5838 60.5527 49.4693 60.6001 49.35 60.6001H46.65C46.5306 60.6001 46.4162 60.5527 46.3318 60.4683C46.2474 60.3839 46.2 60.2694 46.2 60.1501V57.0001H49.8Z" fill="white"/>
<path d="M43.5539 39.2017C43.7196 38.1415 44.2587 37.1755 45.0739 36.4778C45.8892 35.7801 46.9269 35.3967 47.9999 35.3967C49.0729 35.3967 50.1106 35.7801 50.9258 36.4778C51.741 37.1755 52.2801 38.1415 52.4459 39.2017C52.4749 39.3905 52.5633 39.5652 52.6983 39.7005C52.8332 39.8358 53.0077 39.9246 53.1965 39.9541C53.8281 40.0528 54.4314 40.2849 54.9663 40.635C55.5012 40.9851 55.9554 41.4452 56.2986 41.9845C56.6417 42.5239 56.866 43.1302 56.9565 43.763C57.0471 44.3959 57.0017 45.0407 56.8235 45.6547C56.7655 45.8547 56.7787 46.0685 56.8608 46.2599C56.9428 46.4512 57.0887 46.6082 57.2735 46.7041C58.1691 47.1679 58.883 47.9191 59.3005 48.8373C59.718 49.7554 59.815 50.7872 59.5759 51.7671C59.3367 52.7469 58.7753 53.618 57.9817 54.2406C57.1882 54.8631 56.2085 55.2011 55.1999 55.2001H40.7999C39.7914 55.2006 38.812 54.8625 38.0187 54.2398C37.2255 53.6171 36.6644 52.746 36.4255 51.7662C36.1866 50.7864 36.2837 49.7548 36.7012 48.8369C37.1188 47.9189 37.8326 47.1678 38.7281 46.7041C38.9129 46.6082 39.0587 46.4512 39.1408 46.2599C39.2228 46.0685 39.236 45.8547 39.1781 45.6547C39.0004 45.0411 38.9554 44.3968 39.0458 43.7645C39.1363 43.1322 39.3602 42.5264 39.7027 41.9873C40.0452 41.4481 40.4985 40.988 41.0324 40.6375C41.5664 40.2869 42.1688 40.054 42.7997 39.9541C42.9888 39.9249 43.1637 39.8363 43.299 39.701C43.4343 39.5657 43.5229 39.3908 43.5521 39.2017H43.5539Z" fill="white"/>
</svg>
