<svg width="150" height="150" viewBox="0 0 150 150" fill="none" xmlns="http://www.w3.org/2000/svg">
<g filter="url(#filter0_d_33_66)">
<circle cx="75" cy="60" r="55" fill="#FF7800"/>
</g>
<path d="M74.9998 40.5066C74.1471 40.5066 73.3027 40.6746 72.5149 41.0009C71.7271 41.3272 71.0112 41.8055 70.4083 42.4085C69.8053 43.0115 69.327 43.7273 69.0006 44.5151C68.6743 45.303 68.5063 46.1474 68.5063 47.0001C68.5063 47.8528 68.6743 48.6972 69.0006 49.485C69.327 50.2729 69.8053 50.9887 70.4083 51.5917C71.0112 52.1947 71.7271 52.673 72.5149 52.9993C73.3027 53.3256 74.1471 53.4936 74.9998 53.4936C76.722 53.4936 78.3737 52.8095 79.5914 51.5917C80.8092 50.3739 81.4933 48.7223 81.4933 47.0001C81.4933 45.2779 80.8092 43.6263 79.5914 42.4085C78.3737 41.1907 76.722 40.5066 74.9998 40.5066Z" fill="white"/>
<path d="M89.625 43.75C88.3321 43.75 87.0921 44.2636 86.1779 45.1779C85.2636 46.0921 84.75 47.3321 84.75 48.625C84.75 49.9179 85.2636 51.1579 86.1779 52.0721C87.0921 52.9864 88.3321 53.5 89.625 53.5C90.9179 53.5 92.1579 52.9864 93.0721 52.0721C93.9864 51.1579 94.5 49.9179 94.5 48.625C94.5 47.3321 93.9864 46.0921 93.0721 45.1779C92.1579 44.2636 90.9179 43.75 89.625 43.75ZM60.375 43.75C59.0821 43.75 57.8421 44.2636 56.9279 45.1779C56.0136 46.0921 55.5 47.3321 55.5 48.625C55.5 49.9179 56.0136 51.1579 56.9279 52.0721C57.8421 52.9864 59.0821 53.5 60.375 53.5C61.6679 53.5 62.9079 52.9864 63.8221 52.0721C64.7364 51.1579 65.25 49.9179 65.25 48.625C65.25 47.3321 64.7364 46.0921 63.8221 45.1779C62.9079 44.2636 61.6679 43.75 60.375 43.75Z" fill="white"/>
<path d="M65.25 59.9773C65.256 59.1192 65.6011 58.2984 66.2099 57.6938C66.8188 57.0893 67.642 56.75 68.5 56.75H81.5C82.362 56.75 83.1886 57.0924 83.7981 57.7019C84.4076 58.3114 84.75 59.138 84.75 60V69.75C84.7498 70.7728 84.5897 71.7894 84.2755 72.7628C83.5559 74.9685 82.0734 76.8455 80.0944 78.0567C78.1154 79.2678 75.7694 79.7338 73.4778 79.3709C71.1861 79.008 69.0989 77.84 67.5909 76.0767C66.0829 74.3134 65.2529 72.0702 65.25 69.75V59.9773Z" fill="white"/>
<path d="M62 60C62 58.8137 62.3153 57.7055 62.871 56.75H55.5C54.638 56.75 53.8114 57.0924 53.2019 57.7019C52.5924 58.3114 52.25 59.138 52.25 60V68.125C52.2496 69.4552 52.5757 70.7652 53.1999 71.94C53.824 73.1147 54.7271 74.1182 55.8297 74.8624C56.9323 75.6065 58.2008 76.0686 59.5237 76.208C60.8466 76.3474 62.1835 76.1598 63.417 75.6617C62.4816 73.8306 61.9958 71.803 62 69.7467V60ZM88 60V69.75C88 71.8787 87.4897 73.8872 86.583 75.6617C87.8165 76.1598 89.1534 76.3474 90.4763 76.208C91.7992 76.0686 93.0677 75.6065 94.1703 74.8624C95.2729 74.1182 96.176 73.1147 96.8001 71.94C97.4243 70.7652 97.7504 69.4552 97.75 68.125V60C97.75 59.138 97.4076 58.3114 96.7981 57.7019C96.1886 57.0924 95.362 56.75 94.5 56.75H87.129C87.6815 57.7055 88 58.8137 88 60Z" fill="white"/>
<defs>
<filter id="filter0_d_33_66" x="0" y="0" width="150" height="150" filterUnits="userSpaceOnUse" color-interpolation-filters="sRGB">
<feFlood flood-opacity="0" result="BackgroundImageFix"/>
<feColorMatrix in="SourceAlpha" type="matrix" values="0 0 0 0 0 0 0 0 0 0 0 0 0 0 0 0 0 0 127 0" result="hardAlpha"/>
<feOffset dy="15"/>
<feGaussianBlur stdDeviation="10"/>
<feComposite in2="hardAlpha" operator="out"/>
<feColorMatrix type="matrix" values="0 0 0 0 0.85 0 0 0 0 0.833125 0 0 0 0 0.818125 0 0 0 1 0"/>
<feBlend mode="normal" in2="BackgroundImageFix" result="effect1_dropShadow_33_66"/>
<feBlend mode="normal" in="SourceGraphic" in2="effect1_dropShadow_33_66" result="shape"/>
</filter>
</defs>
</svg>
