<svg width="150" height="150" viewBox="0 0 150 150" fill="none" xmlns="http://www.w3.org/2000/svg">
<g filter="url(#filter0_d_33_69)">
<circle cx="75" cy="60" r="55" fill="#FF7800"/>
</g>
<path d="M70.962 65.3878L70.028 70.6127L74.926 68.1459L79.824 70.6127L78.888 65.3878L82.852 61.6848L77.376 60.922L74.926 56.1667L72.476 60.922L67 61.6848L70.962 65.3878Z" fill="white"/>
<path d="M89 44.6666H85V40.8333H81V44.6666H69V40.8333H65V44.6666H61C58.794 44.6666 57 46.3858 57 48.4999V75.3333C57 77.4473 58.794 79.1666 61 79.1666H89C91.206 79.1666 93 77.4473 93 75.3333V48.4999C93 46.3858 91.206 44.6666 89 44.6666ZM89.004 75.3333H61V52.3333H89L89.004 75.3333Z" fill="white"/>
<defs>
<filter id="filter0_d_33_69" x="0" y="0" width="150" height="150" filterUnits="userSpaceOnUse" color-interpolation-filters="sRGB">
<feFlood flood-opacity="0" result="BackgroundImageFix"/>
<feColorMatrix in="SourceAlpha" type="matrix" values="0 0 0 0 0 0 0 0 0 0 0 0 0 0 0 0 0 0 127 0" result="hardAlpha"/>
<feOffset dy="15"/>
<feGaussianBlur stdDeviation="10"/>
<feComposite in2="hardAlpha" operator="out"/>
<feColorMatrix type="matrix" values="0 0 0 0 0.85 0 0 0 0 0.833125 0 0 0 0 0.818125 0 0 0 1 0"/>
<feBlend mode="normal" in2="BackgroundImageFix" result="effect1_dropShadow_33_69"/>
<feBlend mode="normal" in="SourceGraphic" in2="effect1_dropShadow_33_69" result="shape"/>
</filter>
</defs>
</svg>
